<svg width="272" height="394" viewBox="0 0 272 394" fill="none" xmlns="http://www.w3.org/2000/svg">
<path d="M270.917 236.945L270.917 236.953C270.931 237.156 270.963 237.356 270.991 237.528C270.995 237.554 270.999 237.579 271.003 237.604C271.034 237.803 271.056 237.967 271.056 238.123V282.797C271.056 343.69 215.198 393.319 146.412 393.319C77.6256 393.319 21.7675 343.703 21.7675 282.797V74.784V74.4923L21.5135 74.3487C8.89146 67.2142 0.500101 54.7748 0.5 40.6055C0.511005 29.9988 5.26144 19.8147 13.7337 12.2909L13.4017 11.917L13.7337 12.2909C22.2078 4.7653 33.7109 0.519674 45.7231 0.5C57.7416 0.513168 69.2533 4.75559 77.7356 12.2815C86.2158 19.8056 90.9731 29.9931 90.988 40.6048C90.9735 47.3319 89.0441 53.9505 85.3738 59.8469C81.703 65.744 76.4084 70.7294 69.976 74.3355L69.7205 74.4787V74.7716V282.797C69.7205 320.408 104.19 350.898 146.426 350.898C188.661 350.898 223.131 320.408 223.131 282.797V275.564V274.749L222.404 275.118L215.036 278.865C212.3 280.252 209.281 281.15 206.151 281.503C203.021 281.857 199.842 281.659 196.799 280.923C193.755 280.188 190.908 278.927 188.418 277.217C185.929 275.507 183.849 273.381 182.291 270.964L182.291 270.964C180.731 268.548 179.724 265.887 179.326 263.133C178.928 260.378 179.146 257.58 179.967 254.9C180.789 252.218 182.198 249.703 184.12 247.498C186.042 245.293 188.438 243.442 191.172 242.055L191.172 242.055L235.161 219.724L235.161 219.724L235.172 219.718C235.331 219.632 235.507 219.565 235.711 219.494C235.747 219.481 235.786 219.468 235.825 219.454C235.993 219.396 236.182 219.331 236.363 219.254L236.372 219.25C237.157 218.895 237.924 218.58 238.743 218.3C239.46 218.07 240.19 217.871 240.931 217.706L240.94 217.704C241.695 217.521 242.421 217.375 243.203 217.254C244.062 217.133 244.925 217.06 245.793 217.011C246.025 217.004 246.248 216.977 246.445 216.953L246.489 216.947C246.707 216.921 246.896 216.9 247.086 216.9C247.2 216.9 247.313 216.912 247.452 216.929C247.583 216.945 247.745 216.966 247.916 216.973C248.786 217.019 249.653 217.1 250.515 217.217L250.525 217.219L250.534 217.22C251.249 217.288 251.959 217.393 252.661 217.534C253.294 217.672 253.889 217.85 254.506 218.035C254.638 218.074 254.771 218.114 254.906 218.154C255.118 218.225 255.328 218.293 255.533 218.36C256.065 218.533 256.574 218.698 257.062 218.897C257.737 219.173 258.389 219.509 259.074 219.87L259.083 219.874L259.092 219.879C259.764 220.198 260.415 220.554 261.039 220.941C261.644 221.322 262.212 221.765 262.802 222.228L262.806 222.231L262.827 222.247C263.439 222.716 264.009 223.152 264.522 223.654L264.531 223.663L264.54 223.671C265.021 224.097 265.428 224.572 265.872 225.09L265.891 225.112L265.892 225.113L265.976 225.211C266.509 225.825 267.003 226.394 267.422 227.014L267.425 227.018C267.516 227.151 267.615 227.264 267.693 227.354L267.702 227.364C267.787 227.462 267.846 227.532 267.896 227.606L267.901 227.613C267.983 227.732 268.047 227.867 268.123 228.04C268.194 228.202 268.281 228.413 268.397 228.612L268.401 228.618C269.173 229.895 269.756 231.253 270.136 232.659L270.139 232.669L270.142 232.679C270.583 234.071 270.843 235.502 270.917 236.945Z" fill="white" stroke="#3865F2"/>
</svg>
