<svg width="70" height="70" viewBox="0 0 70 70" fill="none" xmlns="http://www.w3.org/2000/svg">
<path d="M34.9999 5.83337C18.9262 5.83337 5.83325 18.9263 5.83325 35C5.83325 51.0738 18.9262 64.1667 34.9999 64.1667C51.0737 64.1667 64.1666 51.0738 64.1666 35C64.1666 18.9263 51.0737 5.83337 34.9999 5.83337ZM34.9999 11.6667C47.9211 11.6667 58.3332 22.0788 58.3332 35C58.3332 46.7089 49.7738 56.3297 38.5546 58.0371V41.9556H45.345L46.4102 35.057H38.5546V31.2858C38.5546 28.4188 39.4886 25.8741 42.172 25.8741H46.4786V19.8527C45.7203 19.7507 44.1199 19.528 41.0953 19.528C34.7778 19.528 31.0749 22.8647 31.0749 30.4655V35.057H24.5808V41.9556H31.0749V57.9802C20.0383 56.1192 11.6666 46.5799 11.6666 35C11.6666 22.0788 22.0787 11.6667 34.9999 11.6667Z" fill="white"/>
</svg>
