<svg width="70" height="70" viewBox="0 0 70 70" fill="none" xmlns="http://www.w3.org/2000/svg">
<path d="M23.3333 8.75C15.2921 8.75 8.75 15.2921 8.75 23.3333V46.6667C8.75 54.7079 15.2921 61.25 23.3333 61.25H46.6667C54.7079 61.25 61.25 54.7079 61.25 46.6667V23.3333C61.25 15.2921 54.7079 8.75 46.6667 8.75H23.3333ZM23.3333 14.5833H46.6667C51.4908 14.5833 55.4167 18.5092 55.4167 23.3333V46.6667C55.4167 51.4908 51.4908 55.4167 46.6667 55.4167H23.3333C18.5092 55.4167 14.5833 51.4908 14.5833 46.6667V23.3333C14.5833 18.5092 18.5092 14.5833 23.3333 14.5833ZM49.5833 17.5C48.8098 17.5 48.0679 17.8073 47.5209 18.3543C46.974 18.9013 46.6667 19.6431 46.6667 20.4167C46.6667 21.1902 46.974 21.9321 47.5209 22.4791C48.0679 23.026 48.8098 23.3333 49.5833 23.3333C50.3569 23.3333 51.0988 23.026 51.6457 22.4791C52.1927 21.9321 52.5 21.1902 52.5 20.4167C52.5 19.6431 52.1927 18.9013 51.6457 18.3543C51.0988 17.8073 50.3569 17.5 49.5833 17.5ZM35 20.4167C26.9587 20.4167 20.4167 26.9587 20.4167 35C20.4167 43.0413 26.9587 49.5833 35 49.5833C43.0413 49.5833 49.5833 43.0413 49.5833 35C49.5833 26.9587 43.0413 20.4167 35 20.4167ZM35 26.25C39.8242 26.25 43.75 30.1758 43.75 35C43.75 39.8242 39.8242 43.75 35 43.75C30.1758 43.75 26.25 39.8242 26.25 35C26.25 30.1758 30.1758 26.25 35 26.25Z" fill="white"/>
</svg>
