<svg width="70" height="70" viewBox="0 0 70 70" fill="none" xmlns="http://www.w3.org/2000/svg">
<path d="M14.5833 8.75C11.3604 8.75 8.75 11.3604 8.75 14.5833V55.4167C8.75 58.6396 11.3604 61.25 14.5833 61.25H55.4167C58.6396 61.25 61.25 58.6396 61.25 55.4167V14.5833C61.25 11.3604 58.6396 8.75 55.4167 8.75H14.5833ZM14.5833 14.5833H55.4167V55.4167H14.5833V14.5833ZM22.6896 18.4229C20.19 18.4229 18.6906 19.9254 18.6906 21.9263C18.6906 23.9271 20.1902 25.424 22.439 25.424C24.9385 25.424 26.438 23.9271 26.438 21.9263C26.438 19.9254 24.9384 18.4229 22.6896 18.4229ZM18.89 29.1667V49.5833H26.25V29.1667H18.89ZM32.3226 29.1667V49.5833H39.6826V38.4237C39.6826 35.1016 42.0528 34.624 42.7645 34.624C43.4762 34.624 45.3792 35.3378 45.3792 38.4237V49.5833H52.5V38.4237C52.5 32.0157 49.6526 29.1667 46.0913 29.1667C42.5301 29.1667 40.6305 30.3525 39.6826 32.015V29.1667H32.3226Z" fill="white"/>
</svg>
