<svg width="70" height="70" viewBox="0 0 70 70" fill="none" xmlns="http://www.w3.org/2000/svg">
<path d="M16.5658 5.83337L20.8781 21.4193V28.8933H24.6151V21.4193L28.9844 5.83337H25.2189L23.6523 12.9257C23.2119 14.9965 22.9319 16.4683 22.8035 17.3462H22.6896C22.5059 16.1183 22.2258 14.6355 21.8408 12.8972L20.3312 5.83337H16.5658ZM33.3423 11.718C32.0765 11.718 31.0563 11.9653 30.2775 12.4699C29.4988 12.9716 28.9246 13.7743 28.5571 14.8739C28.1925 15.9735 28.0103 17.429 28.0103 19.2432V21.6927C28.0103 23.4865 28.1679 24.923 28.4888 26.0051C28.8096 27.0872 29.3511 27.8843 30.1123 28.3977C30.8736 28.911 31.921 29.1667 33.2568 29.1667C34.5577 29.1667 35.5918 28.9136 36.3501 28.4091C37.1084 27.9045 37.6581 27.113 37.9964 26.0222C38.3348 24.9313 38.5034 23.4894 38.5034 21.6927V19.2432C38.5034 17.432 38.3321 15.9818 37.985 14.891C37.6379 13.8031 37.0855 13.0004 36.333 12.487C35.5805 11.9737 34.5877 11.718 33.3423 11.718ZM40.4801 12.0484V24.6322C40.4801 26.1897 40.7411 27.3352 41.272 28.0673C41.8028 28.7993 42.6272 29.1667 43.7443 29.1667C45.3543 29.1667 46.568 28.3886 47.373 26.8311H47.4528L47.7832 28.8933H50.7511V12.0484H46.9629V25.4297C46.8171 25.7418 46.594 25.9975 46.2907 26.1988C45.9874 26.4029 45.6746 26.5007 45.3451 26.5007C44.9601 26.5007 44.6853 26.343 44.519 26.0222C44.3528 25.7013 44.2684 25.1625 44.2684 24.41V12.0484H40.4801ZM33.2568 14.327C33.7877 14.327 34.1634 14.6044 34.3734 15.1644C34.5834 15.7215 34.6867 16.6086 34.6867 17.8191V23.0656C34.6867 24.311 34.5834 25.2118 34.3734 25.7601C34.1634 26.3085 33.7904 26.5832 33.2625 26.5861C32.7317 26.5861 32.3643 26.3085 32.1631 25.7601C31.9589 25.2118 31.8612 24.311 31.8612 23.0656V17.8191C31.8612 16.6116 31.9645 15.7244 32.1745 15.1644C32.3845 14.6073 32.7435 14.327 33.2568 14.327ZM14.5833 32.0834C11.375 32.0834 8.75 34.7084 8.75 37.9167V58.3334C8.75 61.5417 11.375 64.1667 14.5833 64.1667H55.4167C58.625 64.1667 61.25 61.5417 61.25 58.3334V37.9167C61.25 34.7084 58.625 32.0834 55.4167 32.0834H14.5833ZM35.1424 37.9167H38.2243V45.4078H38.2471C38.5242 44.8653 38.9216 44.43 39.432 44.0975C39.9424 43.765 40.4948 43.6019 41.084 43.6019C41.8423 43.6019 42.4354 43.8033 42.867 44.2058C43.2987 44.6083 43.6145 45.2586 43.807 46.154C43.9995 47.0523 44.0918 48.2985 44.0918 49.891V52.1412H44.0975C44.0975 54.2616 43.8389 55.8149 43.3285 56.8124C42.818 57.8099 42.0237 58.3106 40.9416 58.3106C40.3378 58.3106 39.7911 58.1718 39.2952 57.8947C38.7994 57.6176 38.4266 57.2367 38.1787 56.7554H38.1104L37.7856 58.0998H35.1424V37.9167ZM16.0018 38.6345H25.4867V41.215H22.3079V58.0998H19.1805V41.215H16.0018V38.6345ZM49.8682 43.6076C50.9648 43.6076 51.8083 43.809 52.3975 44.2115C52.9837 44.614 53.3972 45.2426 53.6393 46.0913C53.8785 46.943 53.9982 48.1184 53.9982 49.6175V52.0557H48.6434V52.7792C48.6434 53.6921 48.6677 54.375 48.7231 54.83C48.7786 55.285 48.8901 55.6198 49.0592 55.8269C49.2284 56.0369 49.4895 56.1402 49.8454 56.1402C50.3237 56.1402 50.653 55.9523 50.8309 55.5819C51.0088 55.2115 51.1068 54.5968 51.1214 53.7305L53.8843 53.89C53.8989 54.0125 53.9071 54.1869 53.9071 54.4027C53.9071 55.7181 53.5451 56.7004 52.8247 57.3479C52.1043 57.9983 51.0924 58.322 49.777 58.322C48.1991 58.322 47.0917 57.8239 46.4559 56.8352C45.8201 55.8464 45.5046 54.3174 45.5046 52.2437V49.76C45.5046 47.625 45.8338 46.066 46.4901 45.083C47.1463 44.1001 48.2757 43.6076 49.8682 43.6076ZM24.5296 43.8811H27.7368V54.323C27.7368 54.9559 27.8076 55.4104 27.9476 55.6787C28.0876 55.95 28.3159 56.0832 28.6426 56.0832C28.9197 56.0832 29.1921 55.9989 29.4458 55.8269C29.7025 55.6577 29.8843 55.4399 30.0098 55.1774V43.8811H33.217V58.0998H33.2113H30.7048L30.4313 56.3566H30.3573C29.6748 57.675 28.6546 58.3334 27.2925 58.3334C26.3475 58.3334 25.6567 58.0232 25.2075 57.4048C24.7584 56.7865 24.5296 55.8177 24.5296 54.5052V43.8811ZM49.7998 45.7723C49.4586 45.7723 49.2055 45.8759 49.0422 46.0743C48.8788 46.2755 48.77 46.6048 48.7174 47.0598C48.662 47.5148 48.6377 48.2058 48.6377 49.1333V50.153H50.979V49.1333C50.979 48.2204 50.9491 47.5323 50.8879 47.0598C50.8295 46.5873 50.7151 46.2554 50.5518 46.0629C50.3884 45.8704 50.1411 45.7723 49.7998 45.7723ZM39.6427 45.8749C39.3336 45.8749 39.0507 45.9972 38.7882 46.2452C38.5257 46.4931 38.3379 46.8115 38.23 47.1965V55.2686C38.37 55.5165 38.5523 55.7014 38.7769 55.8269C39.0014 55.9494 39.2406 56.0149 39.506 56.0149C39.8473 56.0149 40.1137 55.8925 40.3149 55.6446C40.5162 55.3967 40.6633 54.9805 40.7479 54.3913C40.8325 53.8051 40.8732 52.9886 40.8732 51.9532V50.1245C40.8732 49.0104 40.8407 48.1534 40.7707 47.5497C40.7007 46.9459 40.5754 46.5103 40.4004 46.2565C40.2225 46.0028 39.9694 45.8749 39.6427 45.8749Z" fill="white"/>
</svg>
